<svg height="1022" width="720" xmlns="http://www.w3.org/2000/svg">
<rect height="1022" fill="#555" width="720"></rect>
<text fill="#7f7" font-family="Courier New" font-size="12" xml:space="preserve">
<tspan x="10" y="26">13 megabytes installed</tspan>
<tspan x="10" y="42"></tspan>
<tspan x="10" y="58">node_modules</tspan>
<tspan x="10" y="74">└─┬ marko@4.2.8 </tspan>
<tspan x="10" y="90">  ├── app-module-path@2.2.0 </tspan>
<tspan x="10" y="106">  ├── argly@1.2.0 </tspan>
<tspan x="10" y="122">  ├── browser-refresh-client@1.1.4 </tspan>
<tspan x="10" y="138">  ├── char-props@0.1.5 </tspan>
<tspan x="10" y="154">  ├── complain@1.0.0 </tspan>
<tspan x="10" y="170">  ├─┬ deresolve@1.1.2 </tspan>
<tspan x="10" y="186">  │ └── resolve-from@1.0.1 </tspan>
<tspan x="10" y="202">  ├─┬ escodegen@1.8.1 </tspan>
<tspan x="10" y="218">  │ ├── esprima@2.7.3 </tspan>
<tspan x="10" y="234">  │ ├── estraverse@1.9.3 </tspan>
<tspan x="10" y="250">  │ ├── esutils@2.0.2 </tspan>
<tspan x="10" y="266">  │ ├─┬ optionator@0.8.2 </tspan>
<tspan x="10" y="282">  │ │ ├── deep-is@0.1.3 </tspan>
<tspan x="10" y="298">  │ │ ├── fast-levenshtein@2.0.6 </tspan>
<tspan x="10" y="314">  │ │ ├── levn@0.3.0 </tspan>
<tspan x="10" y="330">  │ │ ├── prelude-ls@1.1.2 </tspan>
<tspan x="10" y="346">  │ │ ├── type-check@0.3.2 </tspan>
<tspan x="10" y="362">  │ │ └── wordwrap@1.0.0 </tspan>
<tspan x="10" y="378">  │ └─┬ source-map@0.2.0 </tspan>
<tspan x="10" y="394">  │   └── amdefine@1.0.1 </tspan>
<tspan x="10" y="410">  ├── esprima@3.1.3 </tspan>
<tspan x="10" y="426">  ├── estraverse@4.2.0 </tspan>
<tspan x="10" y="442">  ├── events@1.1.1 </tspan>
<tspan x="10" y="458">  ├─┬ events-light@1.0.5 </tspan>
<tspan x="10" y="474">  │ └─┬ chai@3.5.0 </tspan>
<tspan x="10" y="490">  │   ├── assertion-error@1.0.2 </tspan>
<tspan x="10" y="506">  │   ├─┬ deep-eql@0.1.3 </tspan>
<tspan x="10" y="522">  │   │ └── type-detect@0.1.1 </tspan>
<tspan x="10" y="538">  │   └── type-detect@1.0.0 </tspan>
<tspan x="10" y="554">  ├── he@1.1.1 </tspan>
<tspan x="10" y="570">  ├── htmljs-parser@2.3.2 </tspan>
<tspan x="10" y="586">  ├── lasso-caching-fs@1.0.2 </tspan>
<tspan x="10" y="602">  ├── lasso-modules-client@2.0.4 </tspan>
<tspan x="10" y="618">  ├── lasso-package-root@1.0.1 </tspan>
<tspan x="10" y="634">  ├── listener-tracker@2.0.0 </tspan>
<tspan x="10" y="650">  ├─┬ minimatch@3.0.3 </tspan>
<tspan x="10" y="666">  │ └─┬ brace-expansion@1.1.7 </tspan>
<tspan x="10" y="682">  │   ├── balanced-match@0.4.2 </tspan>
<tspan x="10" y="698">  │   └── concat-map@0.0.1 </tspan>
<tspan x="10" y="714">  ├── object-assign@4.1.1 </tspan>
<tspan x="10" y="730">  ├── property-handlers@1.1.1 </tspan>
<tspan x="10" y="746">  ├── raptor-async@1.1.3 </tspan>
<tspan x="10" y="762">  ├─┬ raptor-json@1.1.0 </tspan>
<tspan x="10" y="778">  │ └── raptor-strings@1.0.2 </tspan>
<tspan x="10" y="794">  ├─┬ raptor-logging@1.1.2 </tspan>
<tspan x="10" y="810">  │ └── raptor-stacktraces@1.0.1 </tspan>
<tspan x="10" y="826">  ├── raptor-polyfill@1.0.2 </tspan>
<tspan x="10" y="842">  ├─┬ raptor-promises@1.0.3 </tspan>
<tspan x="10" y="858">  │ ├── q@1.5.0 </tspan>
<tspan x="10" y="874">  │ └── raptor-util@1.1.2 </tspan>
<tspan x="10" y="890">  ├── raptor-regexp@1.0.1 </tspan>
<tspan x="10" y="906">  ├── raptor-util@3.2.0 </tspan>
<tspan x="10" y="922">  ├── resolve-from@2.0.0 </tspan>
<tspan x="10" y="938">  ├─┬ simple-sha1@2.1.0 </tspan>
<tspan x="10" y="954">  │ └── rusha@0.8.5 </tspan>
<tspan x="10" y="970">  ├── strip-json-comments@2.0.1 </tspan>
<tspan x="10" y="986">  ├── try-require@1.2.1 </tspan>
<tspan x="10" y="1002">  └── warp10@1.3.4</tspan>
</text>
</svg>
